#!OML:ASF H:\Pregnant\Project 1\Capture day 1\Session 1\femalepreg.ASF
:FULLY-SPECIFIED
:DEGREES
322
root 2.5745 15.9415 31.4474 -81.5221 -88.4047 115.175
lowerback -9.54389 2.60335 0.950674
upperback -0.708146 3.16959 2.65824
thorax 4.51096 1.53505 2.65068
lowerneck -14.3389 4.24663 5.10991
upperneck 25.0313 4.29124 -0.150699
head 10.5213 2.3002 -0.370373
rclavicle -9.54166e-015 3.33958e-014
rhumerus -27.4671 40.8428 -92.9007
rradius 67.2016
rwrist -45.872
rhand 4.49523 -18.9378
rfingers 7.12502
rthumb 29.8884 -46.5452
lclavicle -9.54166e-015 3.33958e-014
lhumerus -47.6097 -10.0443 78.3127
lradius 39.8132
lwrist 46.5964
lhand -14.5621 1.08006
lfingers 7.12502
lthumb 11.5871 30.7397
rfemur -52.5075 20.9127 7.71961
rtibia 29.6159
rfoot -8.26792 -20.4634
rtoes 6.76906
lfemur 0 0 0
ltibia 0
lfoot 0 0
ltoes 0
323
root 2.53791 15.9386 31.4455 -85.2171 -88.4223 118.316
lowerback -9.83617 2.58408 0.936568
upperback -1.00185 3.14164 2.60627
thorax 4.37039 1.52067 2.60553
lowerneck -14.4709 4.1985 5.12902
upperneck 25.0297 4.28201 -0.382449
head 10.5512 2.27135 -0.454502
rclavicle -1.90833e-014 -3.33958e-014
rhumerus -27.794 39.6575 -93.0861
rradius 65.8943
rwrist -45.4813
rhand 3.31955 -19.1317
rfingers 7.12502
rthumb 28.7659 -46.9355
lclavicle -1.90833e-014 -3.33958e-014
lhumerus -47.8136 -9.68636 78.3121
lradius 39.8162
lwrist 46.4524
lhand -14.447 1.18902
lfingers 7.12502
lthumb 11.6981 30.8424
rfemur -51.7427 21.172 8.01288
rtibia 29.5967
rfoot -8.40733 -20.5242
rtoes 6.62502
lfemur 0 0 0
ltibia 0
lfoot 0 0
ltoes 0
324
root 2.50141 15.9352 31.4434 -88.8931 -88.44 121.455
lowerback -10.1277 2.57523 0.946875
upperback -1.29307 3.12482 2.53795
thorax 4.23353 1.51186 2.53115
lowerneck -14.6361 4.15219 5.17902
upperneck 25.0554 4.26565 -0.617671
head 10.5986 2.24142 -0.545401
rclavicle -6.36111e-015 -1.43125e-014
rhumerus -28.1145 38.4103 -93.2509
rradius 64.5741
rwrist -45.0729
rhand 2.07461 -19.2892
rfingers 7.12502
rthumb 27.5759 -47.289
lclavicle -6.36111e-015 -1.43125e-014
lhumerus -48.0025 -9.35916 78.301
lradius 39.8285
lwrist 46.2913
lhand -14.3914 1.30143
lfingers 7.12502
lthumb 11.7517 30.9518
rfemur -50.8411 20.882 8.71708
rtibia 29.5689
rfoot -8.63328 -19.9463
rtoes 6.48664
lfemur 0 0 0
ltibia 0
lfoot 0 0
ltoes 0
325
root 2.46508 15.9314 31.4413 -92.6603 -88.4598 124.701
lowerback -10.4225 2.57935 0.98396
upperback -1.57708 3.12197 2.45267
thorax 4.10767 1.50989 2.42645
lowerneck -14.84 4.1007 5.25754
upperneck 25.1081 4.2316 -0.852454
head 10.6637 2.20575 -0.642839
rclavicle -1.11319e-014 0
rhumerus -28.411 37.089 -93.3845
rradius 63.2332
rwrist -44.6251
rhand 0.834968 -19.4175
rfingers 7.12502
rthumb 26.3899 -47.6009
lclavicle -1.11319e-014 0
lhumerus -48.1672 -9.06983 78.2828
lradius 39.8516
lwrist 46.1194
lhand -14.4101 1.41629
lfingers 7.12502
lthumb 11.7337 31.0677
rfemur -49.9735 20.6328 9.36883
rtibia 29.5352
rfoot -8.85504 -19.4354
rtoes 6.38658
lfemur 0 0 0
ltibia 0
lfoot 0 0
ltoes 0
326
root 2.42891 15.9273 31.4396 -96.371 -88.4895 127.909
lowerback -10.7194 2.5893 1.03413
upperback -1.85738 3.12339 2.37657
thorax 3.9865 1.50932 2.32486
lowerneck -15.0837 4.04459 5.33626
upperneck 25.1965 4.19132 -1.09879
head 10.7498 2.16542 -0.745017
rclavicle -1.70955e-014 -1.27222e-014
rhumerus -28.6947 35.7278 -93.46
rradius 61.8794
rwrist -44.1432
rhand -0.509289 -19.5661
rfingers 7.12502
rthumb 25.1025 -47.936
lclavicle -1.70955e-014 -1.27222e-014
lhumerus -48.3163 -8.76601 78.2795
lradius 39.8791
lwrist 45.9195
lhand -14.4983 1.54023
lfingers 7.12502
lthumb 11.6486 31.1964
rfemur -49.134 20.3993 9.99359
rtibia 29.4965
rfoot -9.07325 -18.9663
rtoes 6.32264
lfemur 0 0 0
ltibia 0
lfoot 0 0
ltoes 0
327
root 2.39319 15.9228 31.4395 -99.0295 -88.5311 130.084
lowerback -11.0218 2.59575 1.10581
upperback -2.12978 3.11576 2.30716
thorax 3.87727 1.50367 2.21752
lowerneck -15.368 3.98221 5.39175
upperneck 25.3125 4.14281 -1.33341
head 10.853 2.12004 -0.840208
rclavicle -1.43125e-014 -3.18055e-015
rhumerus -28.9574 34.3502 -93.4654
rradius 60.5222
rwrist -43.6344
rhand -1.90768 -19.7398
rfingers 7.12502
rthumb 23.7619 -48.2906
lclavicle -1.43125e-014 -3.18055e-015
lhumerus -48.4398 -8.43295 78.2881
lradius 39.9066
lwrist 45.6807
lhand -14.6441 1.67412
lfingers 7.12502
lthumb 11.508 31.3382
rfemur -48.3174 20.1515 10.5848
rtibia 29.454
rfoot -9.30589 -18.5326
rtoes 6.37226
lfemur 0 0 0
ltibia 0
lfoot 0 0
ltoes 0
328
root 2.35779 15.9181 31.4399 -101.69 -88.5786 132.279
lowerback -11.3276 2.60347 1.18194
upperback -2.39688 3.10752 2.24403
thorax 3.77483 1.49695 2.11451
lowerneck -15.6718 3.91402 5.42495
upperneck 25.4461 4.08492 -1.54624
head 10.9652 2.07035 -0.925642
rclavicle -2.34566e-014 -9.54166e-015
rhumerus -29.2027 32.947 -93.4293
rradius 59.1485
rwrist -43.0866
rhand -3.35447 -19.9352
rfingers 7.12502
rthumb 22.3737 -48.6596
lclavicle -2.34566e-014 -9.54166e-015
lhumerus -48.5467 -8.06222 78.2953
lradius 39.9313
lwrist 45.4065
lhand -14.8073 1.80719
lfingers 7.12502
lthumb 11.3506 31.48
rfemur -47.5248 19.9053 11.1529
rtibia 29.405
rfoot -9.53687 -18.1196
rtoes 6.46715
lfemur 0 0 0
ltibia 0
lfoot 0 0
ltoes 0
329
root 2.32262 15.9133 31.4404 -104.906 -88.6249 135.042
lowerback -11.6347 2.6139 1.26004
upperback -2.65462 3.10148 2.17999
thorax 3.68253 1.49072 2.01012
lowerneck -15.9874 3.84366 5.44146
upperneck 25.5842 4.0174 -1.7211
head 11.0801 2.01891 -0.996546
rclavicle -2.10712e-014 -2.54444e-014
rhumerus -29.4265 31.517 -93.3697
rradius 57.757
rwrist -42.4956
rhand -4.90661 -20.1661
rfingers 7.12502
rthumb 20.8831 -49.062
lclavicle -2.10712e-014 -2.54444e-014
lhumerus -48.6354 -7.6616 78.2858
lradius 39.9508
lwrist 45.1052
lhand -14.9912 1.92509
lfingers 7.12502
lthumb 11.1732 31.6076
rfemur -46.752 19.6743 11.6977
rtibia 29.3481
rfoot -9.76636 -17.7226
rtoes 6.61565
lfemur 0 0 0
ltibia 0
lfoot 0 0
ltoes 0
330
root 2.28765 15.9086 31.4401 -109.282 -88.658 138.979
lowerback -11.9441 2.63207 1.33187
upperback -2.90469 3.10545 2.11281
thorax 3.59859 1.48885 1.90779
lowerneck -16.3026 3.77167 5.43724
upperneck 25.7194 3.94092 -1.85103
head 11.1922 1.96665 -1.0497
rclavicle -3.26007e-014 -3.18055e-014
rhumerus -29.6393 30.071 -93.292
rradius 56.3566
rwrist -41.8726
rhand -6.53313 -20.4158
rfingers 7.12502
rthumb 19.3198 -49.476
lclavicle -3.26007e-014 -3.18055e-014
lhumerus -48.7101 -7.24858 78.2608
lradius 39.9623
lwrist 44.7979
lhand -15.1873 2.02916
lfingers 7.12502
lthumb 10.9841 31.7218
rfemur -46.0046 19.4806 12.214
rtibia 29.2831
rfoot -9.97781 -17.3492
rtoes 6.73518
lfemur 0 0 0
ltibia 0
lfoot 0 0
ltoes 0
331
root 2.25298 15.9039 31.4388 -114.987 -88.6691 144.257
lowerback -12.2491 2.65859 1.40228
upperback -3.14925 3.12034 2.03561
thorax 3.51779 1.49192 1.79741
lowerneck -16.6034 3.69835 5.41575
upperneck 25.8431 3.8514 -1.9217
head 11.2953 1.91406 -1.08104
rclavicle -8.34896e-014 0
rhumerus -29.8437 28.602 -93.2118
rradius 54.9415
rwrist -41.2086
rhand -8.23048 -20.6823
rfingers 7.12502
rthumb 17.6871 -49.8978
lclavicle -8.34896e-014 0
lhumerus -48.7756 -6.83725 78.2113
lradius 39.9617
lwrist 44.5026
lhand -15.4018 2.10944
lfingers 7.12502
lthumb 10.7772 31.813
rfemur -45.2843 19.336 12.7014
rtibia 29.2186
rfoot -10.1774 -17.0058
rtoes 6.83185
lfemur 0 0 0
ltibia 0
lfoot 0 0
ltoes 0
332
root 2.21905 15.899 31.438 -120.421 -88.6647 149.279
lowerback -12.546 2.68894 1.47724
upperback -3.3904 3.13977 1.94497
thorax 3.43665 1.49684 1.67092
lowerneck -16.9066 3.62827 5.38907
upperneck 25.9654 3.7556 -1.94945
head 11.3975 1.8635 -1.09713
rclavicle -5.04913e-014 -1.59028e-015
rhumerus -30.0505 27.1222 -93.1086
rradius 53.5325
rwrist -40.5296
rhand -10.0297 -20.9901
rfingers 7.12502
rthumb 15.9551 -50.3529
lclavicle -5.04913e-014 -1.59028e-015
lhumerus -48.8247 -6.45227 78.1577
lradius 39.9397
lwrist 44.2254
lhand -15.6728 2.1698
lfingers 7.12502
lthumb 10.5158 31.8868
rfemur -44.5896 19.1899 13.1608
rtibia 29.1596
rfoot -10.3622 -16.68
rtoes 6.8471
lfemur 0 0 0
ltibia 0
lfoot 0 0
ltoes 0
